<svg width="169" height="19" viewBox="0 0 169 19" fill="none" xmlns="http://www.w3.org/2000/svg">
<path fill-rule="evenodd" clip-rule="evenodd" d="M55.8901 5.19569C55.2586 5.39783 54.6704 5.71628 54.1558 6.13462C53.6781 6.52777 53.2882 7.01681 53.0113 7.57012C52.5993 8.42155 52.487 9.38723 52.6926 10.3105C52.8983 11.2338 53.4098 12.0605 54.1442 12.6566C54.6657 13.0636 55.2576 13.3712 55.8901 13.5645C56.5947 13.7836 57.329 13.8922 58.0668 13.8865H67.4444V18.6898H58.0668C56.5375 18.7052 55.0168 18.4598 53.57 17.9643C52.2702 17.5225 51.0629 16.8451 50.0084 15.9662C49.0243 15.1343 48.2249 14.1062 47.661 12.9477C47.0912 11.7687 46.8004 10.4742 46.8114 9.16477C46.7956 7.8722 47.0868 6.59434 47.661 5.43623C48.2276 4.31147 49.0279 3.3207 50.0084 2.5302C51.0669 1.68671 52.2753 1.05089 53.57 0.656201C55.0266 0.208839 56.5432 -0.0122939 58.0668 0.000527121H67.4444V4.86202H58.0668C57.3281 4.85629 56.5932 4.96895 55.8901 5.19569ZM20.253 18.6904H0V0.00112557H5.78488V13.8871H16.5088L20.253 18.6904ZM44.1287 10.5326C44.1287 16.1755 40.2458 18.997 32.48 18.997C30.5299 19.0258 28.582 18.8478 26.6693 18.4661C25.245 18.1918 23.8852 17.6516 22.6611 16.8738C21.6593 16.2247 20.8568 15.311 20.3422 14.2341C19.8253 13.0699 19.5726 11.806 19.6019 10.5327V0.00112557H25.3565V10.5326C25.3397 11.1224 25.4345 11.71 25.6361 12.2645C25.8421 12.7526 26.2126 13.1529 26.6833 13.3959C27.3605 13.7337 28.0947 13.9421 28.8483 14.0105C30.0539 14.1465 31.2668 14.2072 32.48 14.1922C33.415 14.2057 34.3496 14.1402 35.2737 13.9965C35.9072 13.9074 36.5158 13.6888 37.0612 13.3541C37.4903 13.0778 37.8263 12.6786 38.0251 12.2087C38.2331 11.675 38.3328 11.1053 38.3184 10.5327V0.00112557H44.1287V10.5326ZM114.592 0L103.499 12.5165V18.6892H97.6913V12.4893L90.2769 4.36485L94.6533 1.08248L98.1918 5.19514C98.3018 5.31644 98.4344 5.46641 98.5909 5.64361L98.7776 5.85475C99.0221 6.12244 99.2743 6.40566 99.5343 6.70441C99.7118 6.90848 99.8803 7.10348 100.041 7.28943L100.26 7.54242C100.485 7.80238 100.64 8.00027 100.733 8.12829C100.919 7.86836 101.191 7.51527 101.544 7.06908C101.897 6.62294 102.409 5.9866 103.08 5.16799L107.329 0H114.592ZM85.299 18.6892H94.0404L82.4279 9.61043L81.3882 8.79951L89.1324 3.11165L93.3731 0H84.9926L79.5995 4.55495C78.7407 5.26238 78.0475 5.86246 77.52 6.3552C76.987 6.84792 76.5344 7.26308 76.162 7.60067C76.2007 7.11569 76.2279 6.59193 76.2473 6.03321C76.2668 5.47449 76.2745 4.90804 76.2745 4.3299V0H70.4663V18.6892H76.2745V13.3235C76.2745 12.8773 76.2666 12.4273 76.2473 11.9695L76.2399 11.7963C76.223 11.4028 76.2065 11.0183 76.193 10.6425C76.5086 10.9606 76.9225 11.3525 77.4346 11.8181C77.948 12.2837 78.6878 12.9356 79.6539 13.7735L85.299 18.6892Z" fill="#944EF5"/>
<path fill-rule="evenodd" clip-rule="evenodd" d="M124.839 10.1963V0H119.031V10.1963C119.047 10.7781 118.947 11.3572 118.736 11.8995C118.535 12.3736 118.194 12.7744 117.758 13.048C117.202 13.3811 116.584 13.5989 115.942 13.6882C115.023 13.8325 114.094 13.8987 113.164 13.8861H110.444L106.188 18.6892H113.164C120.947 18.688 124.839 15.857 124.839 10.1963ZM164.534 4.85984L168.277 0.00225113H127.423V18.6876H144.715V13.8844H133.234V11.3431H144.715V7.09464H133.234V4.85984H152.075V18.6876H157.855V4.85984H164.534Z" fill="#C4C4C4"/>
<path fill-rule="evenodd" clip-rule="evenodd" d="M124.839 10.1963V0H119.031V10.1963C119.047 10.7781 118.947 11.3572 118.736 11.8995C118.535 12.3736 118.194 12.7744 117.758 13.048C117.202 13.3811 116.584 13.5989 115.942 13.6882C115.023 13.8325 114.094 13.8987 113.164 13.8861H110.444L106.188 18.6892H113.164C120.947 18.688 124.839 15.857 124.839 10.1963ZM164.534 4.85984L168.277 0.00225113H127.423V18.6876H144.715V13.8844H133.234V11.3431H144.715V7.09464H133.234V4.85984H152.075V18.6876H157.855V4.85984H164.534Z" fill="white"/>
</svg>
