<svg width="14" height="14" viewBox="0 0 14 14" fill="none" xmlns="http://www.w3.org/2000/svg">
<path d="M5.075 1.05C4.75011 1.05 4.43853 1.17906 4.20879 1.40879C3.97906 1.63853 3.85 1.95011 3.85 2.275V2.975C3.85 3.11424 3.79469 3.24777 3.69623 3.34623C3.59777 3.44469 3.46424 3.5 3.325 3.5C3.18576 3.5 3.05223 3.44469 2.95377 3.34623C2.85531 3.24777 2.8 3.11424 2.8 2.975V2.275C2.8 1.67163 3.03969 1.09298 3.46633 0.666332C3.89298 0.239687 4.47163 0 5.075 0H5.775C5.91424 2.93423e-09 6.04777 0.0553123 6.14623 0.153769C6.24469 0.252225 6.3 0.385761 6.3 0.525C6.3 0.664239 6.24469 0.797774 6.14623 0.896231C6.04777 0.994688 5.91424 1.05 5.775 1.05H5.075ZM7 0.525C7 0.385761 7.05531 0.252225 7.15377 0.153769C7.25223 0.0553123 7.38576 0 7.525 0H9.275C9.41424 2.93424e-09 9.54777 0.0553123 9.64623 0.153769C9.74469 0.252225 9.8 0.385761 9.8 0.525C9.8 0.664239 9.74469 0.797774 9.64623 0.896231C9.54777 0.994688 9.41424 1.05 9.275 1.05H7.525C7.38576 1.05 7.25223 0.994688 7.15377 0.896231C7.05531 0.797774 7 0.664239 7 0.525ZM7.525 10.15C7.38576 10.15 7.25223 10.2053 7.15377 10.3038C7.05531 10.4022 7 10.5358 7 10.675C7 10.8142 7.05531 10.9478 7.15377 11.0462C7.25223 11.1447 7.38576 11.2 7.525 11.2H9.275C9.41424 11.2 9.54777 11.1447 9.64623 11.0462C9.74469 10.9478 9.8 10.8142 9.8 10.675C9.8 10.5358 9.74469 10.4022 9.64623 10.3038C9.54777 10.2053 9.41424 10.15 9.275 10.15H7.525ZM3.325 4.2C3.46424 4.2 3.59777 4.25531 3.69623 4.35377C3.79469 4.45223 3.85 4.58576 3.85 4.725V6.475C3.85 6.61424 3.79469 6.74777 3.69623 6.84623C3.59777 6.94469 3.46424 7 3.325 7C3.18576 7 3.05223 6.94469 2.95377 6.84623C2.85531 6.74777 2.8 6.61424 2.8 6.475V4.725C2.8 4.58576 2.85531 4.45223 2.95377 4.35377C3.05223 4.25531 3.18576 4.2 3.325 4.2ZM14 4.725C14 4.58576 13.9447 4.45223 13.8462 4.35377C13.7478 4.25531 13.6142 4.2 13.475 4.2C13.3358 4.2 13.2022 4.25531 13.1038 4.35377C13.0053 4.45223 12.95 4.58576 12.95 4.725V6.475C12.95 6.61424 13.0053 6.74777 13.1038 6.84623C13.2022 6.94469 13.3358 7 13.475 7C13.6142 7 13.7478 6.94469 13.8462 6.84623C13.9447 6.74777 14 6.61424 14 6.475V4.725ZM11.725 10.15C12.0499 10.15 12.3615 10.0209 12.5912 9.79121C12.8209 9.56147 12.95 9.24989 12.95 8.925V8.225C12.95 8.08576 13.0053 7.95223 13.1038 7.85377C13.2022 7.75531 13.3358 7.7 13.475 7.7C13.6142 7.7 13.7478 7.75531 13.8462 7.85377C13.9447 7.95223 14 8.08576 14 8.225V8.925C14 9.22376 13.9412 9.51959 13.8268 9.7956C13.7125 10.0716 13.5449 10.3224 13.3337 10.5337C13.1224 10.7449 12.8716 10.9125 12.5956 11.0268C12.3196 11.1412 12.0238 11.2 11.725 11.2H11.025C10.8858 11.2 10.7522 11.1447 10.6538 11.0462C10.5553 10.9478 10.5 10.8142 10.5 10.675C10.5 10.5358 10.5553 10.4022 10.6538 10.3038C10.7522 10.2053 10.8858 10.15 11.025 10.15H11.725ZM12.95 2.275C12.95 1.95011 12.8209 1.63853 12.5912 1.40879C12.3615 1.17906 12.0499 1.05 11.725 1.05H11.025C10.8858 1.05 10.7522 0.994688 10.6538 0.896231C10.5553 0.797774 10.5 0.664239 10.5 0.525C10.5 0.385761 10.5553 0.252225 10.6538 0.153769C10.7522 0.0553123 10.8858 2.93424e-09 11.025 0H11.725C12.0238 0 12.3196 0.0588446 12.5956 0.173174C12.8716 0.287503 13.1224 0.455079 13.3337 0.666332C13.5449 0.877585 13.7125 1.12838 13.8268 1.4044C13.9412 1.68041 14 1.97624 14 2.275V2.975C14 3.11424 13.9447 3.24777 13.8462 3.34623C13.7478 3.44469 13.6142 3.5 13.475 3.5C13.3358 3.5 13.2022 3.44469 13.1038 3.34623C13.0053 3.24777 12.95 3.11424 12.95 2.975V2.275ZM5.075 10.15C4.75011 10.15 4.43853 10.0209 4.20879 9.79121C3.97906 9.56147 3.85 9.24989 3.85 8.925V8.225C3.85 8.08576 3.79469 7.95223 3.69623 7.85377C3.59777 7.75531 3.46424 7.7 3.325 7.7C3.18576 7.7 3.05223 7.75531 2.95377 7.85377C2.85531 7.95223 2.8 8.08576 2.8 8.225V8.925C2.8 9.52837 3.03969 10.107 3.46633 10.5337C3.89298 10.9603 4.47163 11.2 5.075 11.2H5.775C5.91424 11.2 6.04777 11.1447 6.14623 11.0462C6.24469 10.9478 6.3 10.8142 6.3 10.675C6.3 10.5358 6.24469 10.4022 6.14623 10.3038C6.04777 10.2053 5.91424 10.15 5.775 10.15H5.075ZM0 5.075C6.5299e-05 4.50197 0.216374 3.95007 0.605694 3.52961C0.995015 3.10914 1.52867 2.85108 2.1 2.807V9.1C2.1 9.84261 2.395 10.5548 2.9201 11.0799C3.4452 11.605 4.15739 11.9 4.9 11.9H11.193C11.1489 12.4713 10.8909 13.005 10.4704 13.3943C10.0499 13.7836 9.49803 13.9999 8.925 14H4.025C3.49643 14 2.97303 13.8959 2.4847 13.6936C1.99636 13.4913 1.55265 13.1949 1.1789 12.8211C0.424061 12.0663 0 11.0425 0 9.975V5.075Z" fill="#CDCCD3"/>
</svg>
