<svg width="18" height="20" viewBox="0 0 18 20" fill="none" xmlns="http://www.w3.org/2000/svg">
<path d="M8.5675 0.173814C8.68386 0.0622732 8.83881 0 9 0C9.16119 0 9.31614 0.0622732 9.4325 0.173814C10.8115 1.49531 12.7745 2.21231 14.451 2.59381C15.2805 2.78181 16.0205 2.88381 16.552 2.93881C16.827 2.96703 17.1028 2.98737 17.379 2.99981H17.3895C17.5527 3.0036 17.708 3.07112 17.8221 3.18792C17.9362 3.30472 18 3.46154 18 3.62481V8.49981C18 13.2483 15.47 18.0078 9.1865 19.9713C9.06506 20.0093 8.93494 20.0093 8.8135 19.9713C5.6945 18.9963 3.4795 17.3253 2.0485 15.2623C0.622 13.2038 2.59627e-08 10.7933 2.59627e-08 8.37481V3.62481C-4.69805e-05 3.46162 0.0637379 3.30488 0.177723 3.18809C0.291709 3.0713 0.446853 3.00373 0.61 2.99981H0.621L0.661 2.99831C0.697667 2.99698 0.752333 2.99415 0.825 2.98981C0.97 2.98131 1.1825 2.96581 1.448 2.93881C2.15453 2.86537 2.85609 2.75017 3.549 2.59381C5.225 2.21231 7.188 1.49531 8.5675 0.173814ZM13.3065 7.57681C13.3676 7.52058 13.4169 7.45274 13.4514 7.37725C13.486 7.30176 13.5052 7.22014 13.5079 7.13715C13.5106 7.05416 13.4967 6.97147 13.467 6.89391C13.4374 6.81635 13.3926 6.74547 13.3353 6.68541C13.2779 6.62535 13.2092 6.57732 13.1331 6.54412C13.057 6.51092 12.9751 6.49321 12.892 6.49204C12.809 6.49087 12.7266 6.50625 12.6496 6.53729C12.5726 6.56833 12.5025 6.6144 12.4435 6.67281L7.385 11.5013L5.567 9.68281C5.44977 9.56559 5.29078 9.49973 5.125 9.49973C4.95922 9.49973 4.80023 9.56559 4.683 9.68281C4.56577 9.80004 4.49992 9.95903 4.49992 10.1248C4.49992 10.2906 4.56577 10.4496 4.683 10.5668L6.933 12.8168C7.173 13.0568 7.561 13.0618 7.8065 12.8268L13.3065 7.57681Z" fill="#944EF5"/>
</svg>
