<svg width="14" height="14" viewBox="0 0 14 14" fill="none" xmlns="http://www.w3.org/2000/svg">
<path fill-rule="evenodd" clip-rule="evenodd" d="M7 14C10.8663 14 14 10.8663 14 7C14 3.13373 10.8663 0 7 0C3.13373 0 0 3.13373 0 7C0 10.8663 3.13373 14 7 14ZM7.62385 10.9389H6.46955V10.1623C5.96595 10.0633 5.55006 9.844 5.22188 9.5045C4.89652 9.165 4.69565 8.7378 4.61926 8.2229L5.76508 8.0447C5.84147 8.3785 6.00132 8.6445 6.24463 8.8425C6.49077 9.0405 6.78359 9.1396 7.12309 9.1396C7.44279 9.1396 7.70732 9.0646 7.91668 8.9146C8.1289 8.7647 8.235 8.5794 8.235 8.3587C8.235 8.0758 8.0454 7.87209 7.66629 7.7476L6.15551 7.28079C5.28412 7.01202 4.84843 6.48013 4.84843 5.68513C4.84843 5.207 4.99271 4.81091 5.28129 4.49687C5.56987 4.18283 5.96595 3.98479 6.46955 3.90275V3.13887H7.62385V3.92821C8.0624 4.0244 8.4273 4.21961 8.7187 4.51385C9.013 4.80525 9.2195 5.18436 9.3383 5.65118L8.1501 5.86337C8.0907 5.59177 7.95628 5.37251 7.74692 5.20558C7.54039 5.03583 7.29001 4.94671 6.99578 4.93823C6.71569 4.92974 6.47804 4.99198 6.28282 5.12495C6.09044 5.25792 5.99425 5.42485 5.99425 5.62572C5.99425 5.77283 6.05649 5.90015 6.18097 6.00766C6.30546 6.11234 6.5035 6.20287 6.7751 6.27926L7.85302 6.58481C8.3934 6.74042 8.7824 6.95119 9.0201 7.21713C9.2605 7.48308 9.3808 7.83531 9.3808 8.2738C9.3808 8.7689 9.2209 9.1862 8.9012 9.5257C8.5815 9.8624 8.1557 10.0774 7.62385 10.1708V10.9389Z" fill="#948AC5"/>
</svg>
