<svg width="16" height="14" viewBox="0 0 16 14" fill="none" xmlns="http://www.w3.org/2000/svg">
<path d="M9.72943 8.875C9.72943 9.70343 9.05786 10.375 8.22943 10.375C7.401 10.375 6.72943 9.70343 6.72943 8.875C6.72943 8.04657 7.401 7.375 8.22943 7.375C9.05786 7.375 9.72943 8.04657 9.72943 8.875ZM7.49869 8.875C7.49869 9.27858 7.82585 9.60574 8.22943 9.60574C8.63301 9.60574 8.96017 9.27858 8.96017 8.875C8.96017 8.47142 8.63301 8.14426 8.22943 8.14426C7.82585 8.14426 7.49869 8.47142 7.49869 8.875Z" fill="#948AC5"/>
<path d="M9.85443 4.375C9.85443 5.36144 9.64033 6.2359 9.31273 6.85018C8.97655 7.48058 8.5758 7.75 8.22943 7.75C7.88306 7.75 7.48231 7.48058 7.1461 6.85018C6.81848 6.2359 6.60443 5.36144 6.60443 4.375C6.60443 3.38856 6.81848 2.5141 7.1461 1.89982C7.48231 1.26942 7.88306 1 8.22943 1C8.5758 1 8.97655 1.26942 9.31273 1.89982C9.64033 2.5141 9.85443 3.38856 9.85443 4.375Z" fill="#948AC5" stroke="#948AC5" stroke-width="0.75"/>
<path d="M11.499 12.7084C10.6414 12.2151 9.98871 11.5921 9.61921 11.0007C9.24011 10.3938 9.20715 9.91119 9.38131 9.61061C9.55561 9.30999 9.99141 9.09714 10.7086 9.12082C11.4074 9.1439 12.2752 9.3956 13.1328 9.88889C13.9904 10.3822 14.6431 11.0052 15.0126 11.5966C15.3917 12.2035 15.4247 12.686 15.2505 12.9867C15.0763 13.2873 14.6404 13.5001 13.9232 13.4764C13.2244 13.4534 12.3566 13.2017 11.499 12.7084Z" fill="#948AC5" stroke="#948AC5" stroke-width="0.75"/>
<path d="M4.85087 12.7063C5.70853 12.2129 6.36145 11.5902 6.73117 10.9991C7.11067 10.3925 7.14362 9.9107 6.96996 9.61104C6.7963 9.31136 6.36106 9.09891 5.64398 9.12302C4.94537 9.14651 4.0776 9.39849 3.21993 9.8918C2.36226 10.3852 1.70934 11.0079 1.33962 11.599C0.960117 12.2056 0.927167 12.6874 1.10083 12.9871C1.2745 13.2868 1.70973 13.4992 2.42682 13.4751C3.12542 13.4516 3.9932 13.1996 4.85087 12.7063Z" fill="#948AC5" stroke="#948AC5" stroke-width="0.75"/>
</svg>
