<svg width="14" height="14" viewBox="0 0 14 14" fill="none" xmlns="http://www.w3.org/2000/svg">
<path fill-rule="evenodd" clip-rule="evenodd" d="M7.00126 14.0025C10.8682 14.0025 14.0025 10.8682 14.0025 7.00126C14.0025 3.1343 10.8682 0 7.00126 0C3.1343 0 0 3.1343 0 7.00126C0 10.8682 3.1343 14.0025 7.00126 14.0025ZM7.49539 3.85704C7.49539 3.44283 7.1596 3.10704 6.74539 3.10704C6.33118 3.10704 5.99539 3.44283 5.99539 3.85704V7.52571C5.99539 7.78983 6.13432 8.0345 6.36115 8.1698L9.2146 9.8721C9.5704 10.0843 10.0308 9.9679 10.243 9.6122C10.4552 9.2565 10.3388 8.7961 9.9831 8.5839L7.49539 7.0998V3.85704Z" fill="#948AC5"/>
</svg>
