<svg width="1134" height="330" viewBox="0 0 1134 330" fill="none" xmlns="http://www.w3.org/2000/svg">
<path d="M1121 288.48C1125.09 289.803 1126.16 290.877 1127.48 294.96C1128.81 290.874 1129.88 289.803 1133.96 288.48C1129.88 287.154 1128.81 286.083 1127.48 282C1126.16 286.083 1125.08 287.154 1121 288.48H1121Z" fill="white" fill-opacity="0.3"/>
<path d="M1045 88.48C1049.09 89.803 1050.16 90.8769 1051.48 94.96C1052.81 90.8743 1053.88 89.803 1057.96 88.48C1053.88 87.1544 1052.81 86.0831 1051.48 82C1050.16 86.0831 1049.08 87.1544 1045 88.48H1045Z" fill="white" fill-opacity="0.3"/>
<path d="M928.003 6.48C932.086 7.80297 933.157 8.87692 934.483 12.96C935.806 8.87433 936.877 7.80297 940.96 6.48C936.877 5.15442 935.806 4.08307 934.48 0C933.157 4.08307 932.083 5.15442 928 6.48H928.003Z" fill="white" fill-opacity="0.71"/>
<path d="M838.003 240.48C842.086 241.803 843.157 242.877 844.483 246.96C845.806 242.874 846.877 241.803 850.96 240.48C846.877 239.154 845.806 238.083 844.48 234C843.157 238.083 842.083 239.154 838 240.48H838.003Z" fill="white" fill-opacity="0.3"/>
<path d="M618.003 253.48C622.086 254.803 623.157 255.877 624.483 259.96C625.806 255.874 626.877 254.803 630.96 253.48C626.877 252.154 625.806 251.083 624.48 247C623.157 251.083 622.083 252.154 618 253.48H618.003Z" fill="white" fill-opacity="0.3"/>
<path d="M534.003 92.48C538.086 93.803 539.157 94.8769 540.483 98.96C541.806 94.8743 542.877 93.803 546.96 92.48C542.877 91.1544 541.806 90.0831 540.48 86C539.157 90.0831 538.083 91.1544 534 92.48H534.003Z" fill="white" fill-opacity="0.68"/>
<path d="M271.003 33.48C275.086 34.803 276.157 35.8769 277.483 39.96C278.806 35.8743 279.877 34.803 283.96 33.48C279.877 32.1544 278.806 31.0831 277.48 27C276.157 31.0831 275.083 32.1544 271 33.48H271.003Z" fill="white" fill-opacity="0.3"/>
<path d="M189.003 217.48C193.086 218.803 194.157 219.877 195.483 223.96C196.806 219.874 197.877 218.803 201.96 217.48C197.877 216.154 196.806 215.083 195.48 211C194.157 215.083 193.083 216.154 189 217.48H189.003Z" fill="white" fill-opacity="0.3"/>
<path d="M0.00256252 323.48C4.08563 324.803 5.15699 325.877 6.48256 329.96C7.80554 325.874 8.87689 324.803 12.96 323.48C8.87689 322.154 7.80554 321.083 6.47996 317C5.15699 321.083 4.08304 322.154 -3.14713e-05 323.48H0.00256252Z" fill="white" fill-opacity="0.6"/>
</svg>
